<?xml version="1.0" encoding="UTF-8" standalone="no"?>
<!DOCTYPE svg PUBLIC "-//W3C//DTD SVG 1.1//EN"
 "http://www.w3.org/Graphics/SVG/1.1/DTD/svg11.dtd">
<!-- Generated by graphviz version 2.43.0 (0)
 -->
<!-- Title: %3 Pages: 1 -->
<svg width="1025pt" height="332pt"
 viewBox="0.00 0.00 1024.50 332.00" xmlns="http://www.w3.org/2000/svg" xmlns:xlink="http://www.w3.org/1999/xlink">
<g id="graph0" class="graph" transform="scale(1 1) rotate(0) translate(4 328)">
<title>%3</title>
<polygon fill="white" stroke="transparent" points="-4,4 -4,-328 1020.5,-328 1020.5,4 -4,4"/>
<!-- A -->
<g id="node1" class="node">
<title>A</title>
<ellipse fill="none" stroke="black" cx="486" cy="-306" rx="63.89" ry="18"/>
<text text-anchor="middle" x="486" y="-302.3" font-family="Times,serif" font-size="14.00">elementary</text>
</g>
<!-- A1 -->
<g id="node2" class="node">
<title>A1</title>
<polygon fill="none" stroke="black" points="551.5,-252 170.5,-252 170.5,-216 551.5,-216 551.5,-252"/>
<text text-anchor="middle" x="361" y="-230.3" font-family="Times,serif" font-size="14.00">age 6&#45;10, reading, writing, introductions, childcare</text>
</g>
<!-- A&#45;&gt;A1 -->
<g id="edge5" class="edge">
<title>A&#45;&gt;A1</title>
<path fill="none" stroke="black" d="M458.57,-289.64C441.44,-280.05 419.13,-267.55 400.16,-256.93"/>
<polygon fill="black" stroke="black" points="401.87,-253.88 391.44,-252.04 398.45,-259.98 401.87,-253.88"/>
</g>
<!-- B -->
<g id="node3" class="node">
<title>B</title>
<ellipse fill="none" stroke="black" cx="612" cy="-234" rx="42.49" ry="18"/>
<text text-anchor="middle" x="612" y="-230.3" font-family="Times,serif" font-size="14.00">middle</text>
</g>
<!-- A&#45;&gt;B -->
<g id="edge1" class="edge">
<title>A&#45;&gt;B</title>
<path fill="none" stroke="black" d="M513.65,-289.64C532.75,-279.03 558.25,-264.86 578.5,-253.61"/>
<polygon fill="black" stroke="black" points="580.36,-256.58 587.4,-248.67 576.96,-250.47 580.36,-256.58"/>
</g>
<!-- B1 -->
<g id="node4" class="node">
<title>B1</title>
<polygon fill="none" stroke="black" points="553,-180 55,-180 55,-144 553,-144 553,-180"/>
<text text-anchor="middle" x="304" y="-158.3" font-family="Times,serif" font-size="14.00">age 10&#45;15, introduction to sciences, common uses of basic methods</text>
</g>
<!-- B&#45;&gt;B1 -->
<g id="edge6" class="edge">
<title>B&#45;&gt;B1</title>
<path fill="none" stroke="black" d="M580.27,-222C573.61,-219.87 566.61,-217.76 560,-216 510.76,-202.9 455.48,-191.1 408.92,-181.97"/>
<polygon fill="black" stroke="black" points="409.3,-178.48 398.82,-180.01 407.96,-185.35 409.3,-178.48"/>
</g>
<!-- C -->
<g id="node5" class="node">
<title>C</title>
<ellipse fill="none" stroke="black" cx="612" cy="-162" rx="40.89" ry="18"/>
<text text-anchor="middle" x="612" y="-158.3" font-family="Times,serif" font-size="14.00">higher</text>
</g>
<!-- B&#45;&gt;C -->
<g id="edge2" class="edge">
<title>B&#45;&gt;C</title>
<path fill="none" stroke="black" d="M612,-215.7C612,-207.98 612,-198.71 612,-190.11"/>
<polygon fill="black" stroke="black" points="615.5,-190.1 612,-180.1 608.5,-190.1 615.5,-190.1"/>
</g>
<!-- F -->
<g id="node9" class="node">
<title>F</title>
<ellipse fill="none" stroke="black" cx="806" cy="-162" rx="89.88" ry="18"/>
<text text-anchor="middle" x="806" y="-158.3" font-family="Times,serif" font-size="14.00">craftsman school</text>
</g>
<!-- B&#45;&gt;F -->
<g id="edge4" class="edge">
<title>B&#45;&gt;F</title>
<path fill="none" stroke="black" d="M643.17,-221.75C673.23,-210.91 719.25,-194.3 754.71,-181.51"/>
<polygon fill="black" stroke="black" points="756.19,-184.69 764.41,-178.01 753.81,-178.11 756.19,-184.69"/>
</g>
<!-- C1 -->
<g id="node6" class="node">
<title>C1</title>
<polygon fill="none" stroke="black" points="536,-108 0,-108 0,-72 536,-72 536,-108"/>
<text text-anchor="middle" x="268" y="-86.3" font-family="Times,serif" font-size="14.00">university preparation(?), options for selecting and deselecting interests</text>
</g>
<!-- C&#45;&gt;C1 -->
<g id="edge7" class="edge">
<title>C&#45;&gt;C1</title>
<path fill="none" stroke="black" d="M581.55,-149.84C575.14,-147.72 568.39,-145.65 562,-144 507.99,-130.03 447.46,-118.45 395.42,-109.7"/>
<polygon fill="black" stroke="black" points="395.91,-106.24 385.47,-108.05 394.76,-113.14 395.91,-106.24"/>
</g>
<!-- D -->
<g id="node7" class="node">
<title>D</title>
<ellipse fill="none" stroke="black" cx="612" cy="-90" rx="57.69" ry="18"/>
<text text-anchor="middle" x="612" y="-86.3" font-family="Times,serif" font-size="14.00">university</text>
</g>
<!-- C&#45;&gt;D -->
<g id="edge3" class="edge">
<title>C&#45;&gt;D</title>
<path fill="none" stroke="black" d="M612,-143.7C612,-135.98 612,-126.71 612,-118.11"/>
<polygon fill="black" stroke="black" points="615.5,-118.1 612,-108.1 608.5,-118.1 615.5,-118.1"/>
</g>
<!-- D1 -->
<g id="node8" class="node">
<title>D1</title>
<polygon fill="none" stroke="black" points="819,-36 405,-36 405,0 819,0 819,-36"/>
<text text-anchor="middle" x="612" y="-14.3" font-family="Times,serif" font-size="14.00">highly specialized, in depth study of the state of the art</text>
</g>
<!-- D&#45;&gt;D1 -->
<g id="edge8" class="edge">
<title>D&#45;&gt;D1</title>
<path fill="none" stroke="black" d="M612,-71.7C612,-63.98 612,-54.71 612,-46.11"/>
<polygon fill="black" stroke="black" points="615.5,-46.1 612,-36.1 608.5,-46.1 615.5,-46.1"/>
</g>
<!-- F1 -->
<g id="node10" class="node">
<title>F1</title>
<polygon fill="none" stroke="black" points="1016.5,-108 687.5,-108 687.5,-72 1016.5,-72 1016.5,-108"/>
<text text-anchor="middle" x="852" y="-86.3" font-family="Times,serif" font-size="14.00">focus on theory useful for the selected craft</text>
</g>
<!-- F&#45;&gt;F1 -->
<g id="edge9" class="edge">
<title>F&#45;&gt;F1</title>
<path fill="none" stroke="black" d="M817.14,-144.05C822.54,-135.84 829.14,-125.79 835.14,-116.66"/>
<polygon fill="black" stroke="black" points="838.08,-118.55 840.65,-108.28 832.23,-114.71 838.08,-118.55"/>
</g>
</g>
</svg>
