<?xml version="1.0" encoding="UTF-8" standalone="no"?>
<!DOCTYPE svg PUBLIC "-//W3C//DTD SVG 1.1//EN"
 "http://www.w3.org/Graphics/SVG/1.1/DTD/svg11.dtd">
<!-- Generated by graphviz version 2.43.0 (0)
 -->
<!-- Title: %3 Pages: 1 -->
<svg width="590pt" height="490pt"
 viewBox="0.00 0.00 590.16 490.22" xmlns="http://www.w3.org/2000/svg" xmlns:xlink="http://www.w3.org/1999/xlink">
<g id="graph0" class="graph" transform="scale(1 1) rotate(0) translate(4 486.22)">
<title>%3</title>
<polygon fill="white" stroke="transparent" points="-4,4 -4,-486.22 586.16,-486.22 586.16,4 -4,4"/>
<!-- Start -->
<g id="node1" class="node">
<title>Start</title>
<ellipse fill="none" stroke="black" cx="214.93" cy="-464.22" rx="34.39" ry="18"/>
<text text-anchor="middle" x="214.93" y="-460.52" font-family="Times,serif" font-size="14.00">Start</text>
</g>
<!-- O -->
<g id="node2" class="node">
<title>O</title>
<ellipse fill="none" stroke="black" cx="214.93" cy="-391.22" rx="131.08" ry="18"/>
<text text-anchor="middle" x="214.93" y="-387.52" font-family="Times,serif" font-size="14.00">less assets than opponent</text>
</g>
<!-- Start&#45;&gt;O -->
<g id="edge1" class="edge">
<title>Start&#45;&gt;O</title>
<path fill="none" stroke="black" d="M214.93,-446.03C214.93,-438.01 214.93,-428.27 214.93,-419.29"/>
<polygon fill="black" stroke="black" points="218.43,-419.25 214.93,-409.25 211.43,-419.25 218.43,-419.25"/>
</g>
<!-- A -->
<g id="node3" class="node">
<title>A</title>
<ellipse fill="none" stroke="black" cx="161.93" cy="-117.61" rx="161.85" ry="26.74"/>
<text text-anchor="middle" x="161.93" y="-121.41" font-family="Times,serif" font-size="14.00">invest all assets in offense</text>
<text text-anchor="middle" x="161.93" y="-106.41" font-family="Times,serif" font-size="14.00">concentrate forces and attack</text>
</g>
<!-- O&#45;&gt;A -->
<g id="edge2" class="edge">
<title>O&#45;&gt;A</title>
<path fill="none" stroke="black" d="M199.41,-373.23C188.66,-360.28 175.19,-341.47 168.93,-322.22 150.66,-266.06 153.24,-196.55 157.25,-154.99"/>
<polygon fill="black" stroke="black" points="160.75,-155.1 158.31,-144.8 153.79,-154.38 160.75,-155.1"/>
<text text-anchor="middle" x="194.93" y="-239.28" font-family="Times,serif" font-size="14.00">aggressive</text>
</g>
<!-- B -->
<g id="node4" class="node">
<title>B</title>
<ellipse fill="none" stroke="black" cx="379.93" cy="-295.35" rx="202.47" ry="26.74"/>
<text text-anchor="middle" x="379.93" y="-299.15" font-family="Times,serif" font-size="14.00">invest assets in economy and defense</text>
<text text-anchor="middle" x="379.93" y="-284.15" font-family="Times,serif" font-size="14.00">grow resources</text>
</g>
<!-- O&#45;&gt;B -->
<g id="edge3" class="edge">
<title>O&#45;&gt;B</title>
<path fill="none" stroke="black" d="M244.05,-373.65C266.92,-360.64 299.39,-342.17 326.85,-326.55"/>
<polygon fill="black" stroke="black" points="328.61,-329.57 335.57,-321.58 325.15,-323.49 328.61,-329.57"/>
<text text-anchor="middle" x="336.43" y="-344.02" font-family="Times,serif" font-size="14.00">defensive</text>
</g>
<!-- End -->
<g id="node6" class="node">
<title>End</title>
<ellipse fill="none" stroke="black" cx="161.93" cy="-26.87" rx="96.75" ry="26.74"/>
<text text-anchor="middle" x="161.93" y="-30.67" font-family="Times,serif" font-size="14.00">End</text>
<text text-anchor="middle" x="161.93" y="-15.67" font-family="Times,serif" font-size="14.00">hopefully victory</text>
</g>
<!-- A&#45;&gt;End -->
<g id="edge6" class="edge">
<title>A&#45;&gt;End</title>
<path fill="none" stroke="black" d="M161.93,-90.47C161.93,-82.16 161.93,-72.82 161.93,-63.95"/>
<polygon fill="black" stroke="black" points="165.43,-63.83 161.93,-53.83 158.43,-63.83 165.43,-63.83"/>
</g>
<!-- P -->
<g id="node5" class="node">
<title>P</title>
<ellipse fill="none" stroke="black" cx="346.93" cy="-199.48" rx="137.28" ry="18"/>
<text text-anchor="middle" x="346.93" y="-195.78" font-family="Times,serif" font-size="14.00">more assets than opponent</text>
</g>
<!-- B&#45;&gt;P -->
<g id="edge4" class="edge">
<title>B&#45;&gt;P</title>
<path fill="none" stroke="black" d="M370.82,-268.45C366.34,-255.69 360.93,-240.31 356.4,-227.42"/>
<polygon fill="black" stroke="black" points="359.6,-225.97 352.98,-217.7 353,-228.3 359.6,-225.97"/>
<text text-anchor="middle" x="382.43" y="-239.28" font-family="Times,serif" font-size="14.00">grow</text>
</g>
<!-- P&#45;&gt;A -->
<g id="edge5" class="edge">
<title>P&#45;&gt;A</title>
<path fill="none" stroke="black" d="M309.04,-182.12C285.59,-172 254.84,-158.72 227.52,-146.93"/>
<polygon fill="black" stroke="black" points="228.59,-143.58 218.02,-142.83 225.82,-150 228.59,-143.58"/>
</g>
</g>
</svg>
