<?xml version="1.0" encoding="UTF-8" standalone="no"?>
<!DOCTYPE svg PUBLIC "-//W3C//DTD SVG 1.1//EN"
 "http://www.w3.org/Graphics/SVG/1.1/DTD/svg11.dtd">
<!-- Generated by graphviz version 2.43.0 (0)
 -->
<!-- Title: %3 Pages: 1 -->
<svg width="233pt" height="332pt"
 viewBox="0.00 0.00 232.50 332.00" xmlns="http://www.w3.org/2000/svg" xmlns:xlink="http://www.w3.org/1999/xlink">
<g id="graph0" class="graph" transform="scale(1 1) rotate(0) translate(4 328)">
<title>%3</title>
<polygon fill="white" stroke="transparent" points="-4,4 -4,-328 228.5,-328 228.5,4 -4,4"/>
<!-- 0 -->
<g id="node1" class="node">
<title>0</title>
<polygon fill="none" stroke="black" points="135,-324 0,-324 0,-288 135,-288 135,-324"/>
<text text-anchor="middle" x="67.5" y="-302.3" font-family="Times,serif" font-size="14.00">starting position</text>
</g>
<!-- 1 -->
<g id="node2" class="node">
<title>1</title>
<polygon fill="none" stroke="black" points="97.5,-36 43.5,-36 43.5,0 97.5,0 97.5,-36"/>
<text text-anchor="middle" x="70.5" y="-14.3" font-family="Times,serif" font-size="14.00">goal</text>
</g>
<!-- 0&#45;&gt;1 -->
<g id="edge1" class="edge">
<title>0&#45;&gt;1</title>
<path fill="none" stroke="black" d="M21.75,-287.98C21.75,-224.93 21.75,-18 21.75,-18 21.75,-18 33.27,-18 33.27,-18"/>
<polygon fill="black" stroke="black" points="33.27,-21.5 43.27,-18 33.27,-14.5 33.27,-21.5"/>
</g>
<!-- 2 -->
<g id="node3" class="node">
<title>2</title>
<polygon fill="none" stroke="black" points="192.5,-252 44.5,-252 44.5,-216 192.5,-216 192.5,-252"/>
<text text-anchor="middle" x="118.5" y="-230.3" font-family="Times,serif" font-size="14.00">loop start analysis</text>
</g>
<!-- 0&#45;&gt;2 -->
<g id="edge2" class="edge">
<title>0&#45;&gt;2</title>
<path fill="none" stroke="black" d="M89.75,-287.83C89.75,-287.83 89.75,-262.41 89.75,-262.41"/>
<polygon fill="black" stroke="black" points="93.25,-262.41 89.75,-252.41 86.25,-262.41 93.25,-262.41"/>
</g>
<!-- 3 -->
<g id="node4" class="node">
<title>3</title>
<polygon fill="none" stroke="black" points="126.5,-180 66.5,-180 66.5,-144 126.5,-144 126.5,-180"/>
<text text-anchor="middle" x="96.5" y="-158.3" font-family="Times,serif" font-size="14.00">action</text>
</g>
<!-- 2&#45;&gt;3 -->
<g id="edge3" class="edge">
<title>2&#45;&gt;3</title>
<path fill="none" stroke="black" d="M96.5,-215.83C96.5,-215.83 96.5,-190.41 96.5,-190.41"/>
<polygon fill="black" stroke="black" points="100,-190.41 96.5,-180.41 93,-190.41 100,-190.41"/>
</g>
<!-- 4 -->
<g id="node5" class="node">
<title>4</title>
<polygon fill="none" stroke="black" points="206,-108 45,-108 45,-72 206,-72 206,-108"/>
<text text-anchor="middle" x="125.5" y="-86.3" font-family="Times,serif" font-size="14.00">after action analysis</text>
</g>
<!-- 3&#45;&gt;4 -->
<g id="edge4" class="edge">
<title>3&#45;&gt;4</title>
<path fill="none" stroke="black" d="M96.5,-143.83C96.5,-143.83 96.5,-118.41 96.5,-118.41"/>
<polygon fill="black" stroke="black" points="100,-118.41 96.5,-108.41 93,-118.41 100,-118.41"/>
</g>
<!-- 4&#45;&gt;1 -->
<g id="edge6" class="edge">
<title>4&#45;&gt;1</title>
<path fill="none" stroke="black" d="M71.25,-71.83C71.25,-71.83 71.25,-46.41 71.25,-46.41"/>
<polygon fill="black" stroke="black" points="74.75,-46.41 71.25,-36.41 67.75,-46.41 74.75,-46.41"/>
</g>
<!-- 5 -->
<g id="node6" class="node">
<title>5</title>
<polygon fill="none" stroke="black" points="224.5,-180 144.5,-180 144.5,-144 224.5,-144 224.5,-180"/>
<text text-anchor="middle" x="184.5" y="-158.3" font-family="Times,serif" font-size="14.00">feedback</text>
</g>
<!-- 4&#45;&gt;5 -->
<g id="edge5" class="edge">
<title>4&#45;&gt;5</title>
<path fill="none" stroke="black" d="M175.25,-108.17C175.25,-108.17 175.25,-133.59 175.25,-133.59"/>
<polygon fill="black" stroke="black" points="171.75,-133.59 175.25,-143.59 178.75,-133.59 171.75,-133.59"/>
</g>
<!-- 5&#45;&gt;2 -->
<g id="edge7" class="edge">
<title>5&#45;&gt;2</title>
<path fill="none" stroke="black" d="M168.5,-180.17C168.5,-180.17 168.5,-205.59 168.5,-205.59"/>
<polygon fill="black" stroke="black" points="165,-205.59 168.5,-215.59 172,-205.59 165,-205.59"/>
</g>
</g>
</svg>
