<?xml version="1.0" encoding="UTF-8" standalone="no"?>
<!DOCTYPE svg PUBLIC "-//W3C//DTD SVG 1.1//EN"
 "http://www.w3.org/Graphics/SVG/1.1/DTD/svg11.dtd">
<!-- Generated by graphviz version 2.43.0 (0)
 -->
<!-- Title: %3 Pages: 1 -->
<svg width="278pt" height="140pt"
 viewBox="0.00 0.00 278.00 139.96" xmlns="http://www.w3.org/2000/svg" xmlns:xlink="http://www.w3.org/1999/xlink">
<g id="graph0" class="graph" transform="scale(1 1) rotate(0) translate(4 135.96)">
<title>%3</title>
<polygon fill="white" stroke="transparent" points="-4,4 -4,-135.96 274,-135.96 274,4 -4,4"/>
<!-- A -->
<g id="node1" class="node">
<title>A</title>
<ellipse fill="none" stroke="black" cx="27" cy="-90" rx="27" ry="18"/>
<text text-anchor="middle" x="27" y="-86.3" font-family="Times,serif" font-size="14.00">A</text>
</g>
<!-- B -->
<g id="node2" class="node">
<title>B</title>
<ellipse fill="none" stroke="black" cx="99" cy="-90" rx="27" ry="18"/>
<text text-anchor="middle" x="99" y="-86.3" font-family="Times,serif" font-size="14.00">B</text>
</g>
<!-- A&#45;&gt;B -->
<g id="edge1" class="edge">
<title>A&#45;&gt;B</title>
<path fill="none" stroke="black" d="M54,-90C56.61,-90 59.23,-90 61.84,-90"/>
<polygon fill="black" stroke="black" points="61.93,-93.5 71.93,-90 61.93,-86.5 61.93,-93.5"/>
</g>
<!-- C -->
<g id="node3" class="node">
<title>C</title>
<ellipse fill="none" stroke="black" cx="171" cy="-90" rx="27" ry="18"/>
<text text-anchor="middle" x="171" y="-86.3" font-family="Times,serif" font-size="14.00">C</text>
</g>
<!-- B&#45;&gt;C -->
<g id="edge2" class="edge">
<title>B&#45;&gt;C</title>
<path fill="none" stroke="black" d="M120.38,-78.73C126.78,-76.78 133.18,-76.11 139.58,-76.72"/>
<polygon fill="black" stroke="black" points="139.15,-80.2 149.64,-78.73 140.52,-73.34 139.15,-80.2"/>
</g>
<!-- C&#45;&gt;A -->
<g id="edge6" class="edge">
<title>C&#45;&gt;A</title>
<path fill="none" stroke="red" d="M156.78,-105.57C148.63,-113.32 137.71,-121.89 126,-126 103.35,-133.94 94.65,-133.94 72,-126 63.77,-123.11 55.92,-118.02 49.16,-112.55"/>
<polygon fill="red" stroke="red" points="51.04,-109.54 41.22,-105.57 46.42,-114.8 51.04,-109.54"/>
</g>
<!-- C&#45;&gt;B -->
<g id="edge7" class="edge">
<title>C&#45;&gt;B</title>
<path fill="none" stroke="red" d="M149.64,-101.27C143.24,-103.22 136.84,-103.89 130.44,-103.28"/>
<polygon fill="red" stroke="red" points="130.87,-99.8 120.38,-101.27 129.49,-106.66 130.87,-99.8"/>
</g>
<!-- D -->
<g id="node4" class="node">
<title>D</title>
<ellipse fill="none" stroke="black" cx="243" cy="-90" rx="27" ry="18"/>
<text text-anchor="middle" x="243" y="-86.3" font-family="Times,serif" font-size="14.00">D</text>
</g>
<!-- C&#45;&gt;D -->
<g id="edge3" class="edge">
<title>C&#45;&gt;D</title>
<path fill="none" stroke="black" d="M198,-90C200.61,-90 203.23,-90 205.84,-90"/>
<polygon fill="black" stroke="black" points="205.93,-93.5 215.93,-90 205.93,-86.5 205.93,-93.5"/>
</g>
<!-- E -->
<g id="node5" class="node">
<title>E</title>
<ellipse fill="none" stroke="black" cx="99" cy="-18" rx="27" ry="18"/>
<text text-anchor="middle" x="99" y="-14.3" font-family="Times,serif" font-size="14.00">E</text>
</g>
<!-- C&#45;&gt;E -->
<g id="edge9" class="edge">
<title>C&#45;&gt;E</title>
<path fill="none" stroke="red" d="M156.43,-74.83C146.25,-64.94 132.48,-51.55 120.97,-40.36"/>
<polygon fill="red" stroke="red" points="123.41,-37.85 113.8,-33.38 118.53,-42.87 123.41,-37.85"/>
</g>
<!-- F -->
<g id="node6" class="node">
<title>F</title>
<ellipse fill="none" stroke="black" cx="171" cy="-18" rx="27" ry="18"/>
<text text-anchor="middle" x="171" y="-14.3" font-family="Times,serif" font-size="14.00">F</text>
</g>
<!-- C&#45;&gt;F -->
<g id="edge8" class="edge">
<title>C&#45;&gt;F</title>
<path fill="none" stroke="red" d="M165.16,-72.41C164.3,-64.51 164.05,-54.85 164.41,-45.94"/>
<polygon fill="red" stroke="red" points="167.9,-46.18 165.12,-35.96 160.92,-45.68 167.9,-46.18"/>
</g>
<!-- E&#45;&gt;F -->
<g id="edge4" class="edge">
<title>E&#45;&gt;F</title>
<path fill="none" stroke="black" d="M126,-18C128.61,-18 131.23,-18 133.84,-18"/>
<polygon fill="black" stroke="black" points="133.93,-21.5 143.93,-18 133.93,-14.5 133.93,-21.5"/>
</g>
<!-- F&#45;&gt;C -->
<g id="edge5" class="edge">
<title>F&#45;&gt;C</title>
<path fill="none" stroke="black" d="M176.88,-35.96C177.71,-43.83 177.95,-53.37 177.58,-62.19"/>
<polygon fill="black" stroke="black" points="174.07,-62.18 176.84,-72.41 181.06,-62.69 174.07,-62.18"/>
</g>
</g>
</svg>
