<?xml version="1.0" encoding="UTF-8" standalone="no"?>
<!DOCTYPE svg PUBLIC "-//W3C//DTD SVG 1.1//EN"
 "http://www.w3.org/Graphics/SVG/1.1/DTD/svg11.dtd">
<!-- Generated by graphviz version 2.43.0 (0)
 -->
<!-- Title: %3 Pages: 1 -->
<svg width="278pt" height="68pt"
 viewBox="0.00 0.00 278.00 67.96" xmlns="http://www.w3.org/2000/svg" xmlns:xlink="http://www.w3.org/1999/xlink">
<g id="graph0" class="graph" transform="scale(1 1) rotate(0) translate(4 63.96)">
<title>%3</title>
<polygon fill="white" stroke="transparent" points="-4,4 -4,-63.96 274,-63.96 274,4 -4,4"/>
<!-- A -->
<g id="node1" class="node">
<title>A</title>
<ellipse fill="none" stroke="black" cx="27" cy="-18" rx="27" ry="18"/>
<text text-anchor="middle" x="27" y="-14.3" font-family="Times,serif" font-size="14.00">A</text>
</g>
<!-- B -->
<g id="node2" class="node">
<title>B</title>
<ellipse fill="none" stroke="black" cx="99" cy="-18" rx="27" ry="18"/>
<text text-anchor="middle" x="99" y="-14.3" font-family="Times,serif" font-size="14.00">B</text>
</g>
<!-- A&#45;&gt;B -->
<g id="edge1" class="edge">
<title>A&#45;&gt;B</title>
<path fill="none" stroke="black" d="M54,-18C56.61,-18 59.23,-18 61.84,-18"/>
<polygon fill="black" stroke="black" points="61.93,-21.5 71.93,-18 61.93,-14.5 61.93,-21.5"/>
</g>
<!-- C -->
<g id="node3" class="node">
<title>C</title>
<ellipse fill="none" stroke="black" cx="171" cy="-18" rx="27" ry="18"/>
<text text-anchor="middle" x="171" y="-14.3" font-family="Times,serif" font-size="14.00">C</text>
</g>
<!-- B&#45;&gt;C -->
<g id="edge2" class="edge">
<title>B&#45;&gt;C</title>
<path fill="none" stroke="black" d="M120.38,-6.73C126.78,-4.78 133.18,-4.11 139.58,-4.72"/>
<polygon fill="black" stroke="black" points="139.15,-8.2 149.64,-6.73 140.52,-1.34 139.15,-8.2"/>
</g>
<!-- C&#45;&gt;A -->
<g id="edge4" class="edge">
<title>C&#45;&gt;A</title>
<path fill="none" stroke="red" d="M156.78,-33.57C148.63,-41.32 137.71,-49.89 126,-54 103.35,-61.94 94.65,-61.94 72,-54 63.77,-51.11 55.92,-46.02 49.16,-40.55"/>
<polygon fill="red" stroke="red" points="51.04,-37.54 41.22,-33.57 46.42,-42.8 51.04,-37.54"/>
</g>
<!-- C&#45;&gt;B -->
<g id="edge5" class="edge">
<title>C&#45;&gt;B</title>
<path fill="none" stroke="red" d="M149.64,-29.27C143.24,-31.22 136.84,-31.89 130.44,-31.28"/>
<polygon fill="red" stroke="red" points="130.87,-27.8 120.38,-29.27 129.49,-34.66 130.87,-27.8"/>
</g>
<!-- D -->
<g id="node4" class="node">
<title>D</title>
<ellipse fill="none" stroke="black" cx="243" cy="-18" rx="27" ry="18"/>
<text text-anchor="middle" x="243" y="-14.3" font-family="Times,serif" font-size="14.00">D</text>
</g>
<!-- C&#45;&gt;D -->
<g id="edge3" class="edge">
<title>C&#45;&gt;D</title>
<path fill="none" stroke="black" d="M192.38,-6.73C198.78,-4.78 205.18,-4.11 211.58,-4.72"/>
<polygon fill="black" stroke="black" points="211.15,-8.2 221.64,-6.73 212.52,-1.34 211.15,-8.2"/>
</g>
<!-- C&#45;&gt;D -->
<g id="edge6" class="edge">
<title>C&#45;&gt;D</title>
<path fill="none" stroke="blue" d="M192.38,-29.27C198.78,-31.22 205.18,-31.89 211.58,-31.28"/>
<polygon fill="blue" stroke="blue" points="212.52,-34.66 221.64,-29.27 211.15,-27.8 212.52,-34.66"/>
</g>
</g>
</svg>
